<svg width="265" height="245" viewBox="0 0 265 245" fill="none" xmlns="http://www.w3.org/2000/svg">
<mask id="path-1-inside-1_993_1743" fill="white">
<path fill-rule="evenodd" clip-rule="evenodd" d="M59 245C172.771 245 265 152.771 265 39C265 -74.7707 172.771 -167 59 -167C-54.7707 -167 -147 -74.7707 -147 39C-147 152.771 -54.7707 245 59 245ZM50.5 162C118.155 162 173 106.931 173 39C173 -28.931 118.155 -84 50.5 -84C-17.1549 -84 -72 -28.931 -72 39C-72 106.931 -17.1549 162 50.5 162Z"/>
</mask>
<path fill-rule="evenodd" clip-rule="evenodd" d="M59 245C172.771 245 265 152.771 265 39C265 -74.7707 172.771 -167 59 -167C-54.7707 -167 -147 -74.7707 -147 39C-147 152.771 -54.7707 245 59 245ZM50.5 162C118.155 162 173 106.931 173 39C173 -28.931 118.155 -84 50.5 -84C-17.1549 -84 -72 -28.931 -72 39C-72 106.931 -17.1549 162 50.5 162Z" fill="#573BFF"/>
<path d="M264.5 39C264.5 152.495 172.495 244.5 59 244.5V245.5C173.047 245.5 265.5 153.047 265.5 39H264.5ZM59 -166.5C172.495 -166.5 264.5 -74.4945 264.5 39H265.5C265.5 -75.0468 173.047 -167.5 59 -167.5V-166.5ZM-146.5 39C-146.5 -74.4945 -54.4945 -166.5 59 -166.5V-167.5C-55.0468 -167.5 -147.5 -75.0468 -147.5 39H-146.5ZM59 244.5C-54.4945 244.5 -146.5 152.495 -146.5 39H-147.5C-147.5 153.047 -55.0468 245.5 59 245.5V244.5ZM172.5 39C172.5 106.657 117.877 161.5 50.5 161.5V162.5C118.433 162.5 173.5 107.205 173.5 39H172.5ZM50.5 -83.5C117.877 -83.5 172.5 -28.6568 172.5 39H173.5C173.5 -29.2052 118.433 -84.5 50.5 -84.5V-83.5ZM-71.5 39C-71.5 -28.6568 -16.8768 -83.5 50.5 -83.5V-84.5C-17.4329 -84.5 -72.5 -29.2052 -72.5 39H-71.5ZM50.5 161.5C-16.8768 161.5 -71.5 106.657 -71.5 39H-72.5C-72.5 107.205 -17.4329 162.5 50.5 162.5V161.5Z" fill="white" fill-opacity="0.4" mask="url(#path-1-inside-1_993_1743)"/>
</svg>
