<svg width="54" height="49" viewBox="0 0 54 49" fill="none" xmlns="http://www.w3.org/2000/svg">
<g filter="url(#filter0_d_722_1594)">
<rect x="24.9972" y="1" width="24" height="31" rx="3" transform="rotate(1.84338 24.9972 1)" fill="#ECFFA2"/>
</g>
<g filter="url(#filter1_b_722_1594)">
<rect x="24.9972" y="1" width="24" height="31" rx="3" transform="rotate(1.84338 24.9972 1)" fill="url(#paint0_linear_722_1594)"/>
</g>
<path d="M27 1C32.5228 1 37 5.47715 37 11C37 16.5228 32.5228 21 27 21C21.4771 21 17 16.5228 17 11C17 5.47715 21.4771 1 27 1ZM30.2197 7.96967L25.75 12.4393L23.7803 10.4697C23.4874 10.1768 23.0126 10.1768 22.7197 10.4697C22.4268 10.7626 22.4268 11.2374 22.7197 11.5303L25.2197 14.0303C25.5126 14.3232 25.9874 14.3232 26.2803 14.0303L31.2803 9.0303C31.5732 8.73744 31.5732 8.26256 31.2803 7.96967C30.9874 7.67678 30.5126 7.67678 30.2197 7.96967Z" fill="#0FFF9A"/>
<defs>
<filter id="filter0_d_722_1594" x="22.0949" y="0.0949097" width="28.7949" height="35.5662" filterUnits="userSpaceOnUse" color-interpolation-filters="sRGB">
<feFlood flood-opacity="0" result="BackgroundImageFix"/>
<feColorMatrix in="SourceAlpha" type="matrix" values="0 0 0 0 0 0 0 0 0 0 0 0 0 0 0 0 0 0 127 0" result="hardAlpha"/>
<feOffset dy="1"/>
<feGaussianBlur stdDeviation="1"/>
<feComposite in2="hardAlpha" operator="out"/>
<feColorMatrix type="matrix" values="0 0 0 0 0.189507 0 0 0 0 0.189507 0 0 0 0 0.189507 0 0 0 0.25 0"/>
<feBlend mode="normal" in2="BackgroundImageFix" result="effect1_dropShadow_722_1594"/>
<feBlend mode="normal" in="SourceGraphic" in2="effect1_dropShadow_722_1594" result="shape"/>
</filter>
<filter id="filter1_b_722_1594" x="14.0949" y="-8.90509" width="44.7949" height="51.5662" filterUnits="userSpaceOnUse" color-interpolation-filters="sRGB">
<feFlood flood-opacity="0" result="BackgroundImageFix"/>
<feGaussianBlur in="BackgroundImageFix" stdDeviation="5"/>
<feComposite in2="SourceAlpha" operator="in" result="effect1_backgroundBlur_722_1594"/>
<feBlend mode="normal" in="SourceGraphic" in2="effect1_backgroundBlur_722_1594" result="shape"/>
</filter>
<linearGradient id="paint0_linear_722_1594" x1="27.4972" y1="6.32813" x2="44.2789" y2="30.0855" gradientUnits="userSpaceOnUse">
<stop stop-color="white" stop-opacity="0.5"/>
<stop offset="1" stop-color="#F1F0F0" stop-opacity="0.39"/>
</linearGradient>
</defs>
</svg>
